<svg xmlns="http://www.w3.org/2000/svg" width="640" height="460" viewBox="0 0 640 460" role="img" aria-label="儿童城市主题画作">
  <rect width="640" height="460" fill="#f7fbff"/>
  <path d="M0 335 C90 300 150 350 230 318 C310 286 390 344 470 312 C540 284 590 305 640 288 L640 460 L0 460 Z" fill="#bfe8d5"/>
  <circle cx="548" cy="86" r="42" fill="#f6c85f"/>
  <path d="M76 210 h82 v164 h-82z" fill="#5fb6c6" stroke="#2d5e66" stroke-width="6"/>
  <path d="M190 150 h92 v224 h-92z" fill="#f26d5b" stroke="#7d392f" stroke-width="6"/>
  <path d="M316 194 h76 v180 h-76z" fill="#6d78c8" stroke="#313960" stroke-width="6"/>
  <path d="M428 132 h102 v242 h-102z" fill="#8fcf7a" stroke="#406b36" stroke-width="6"/>
  <g fill="#fff7b8" stroke="#4a4a4a" stroke-width="4">
    <rect x="96" y="235" width="20" height="24" rx="2"/>
    <rect x="128" y="235" width="20" height="24" rx="2"/>
    <rect x="213" y="182" width="22" height="28" rx="2"/>
    <rect x="248" y="182" width="22" height="28" rx="2"/>
    <rect x="338" y="224" width="18" height="24" rx="2"/>
    <rect x="366" y="224" width="18" height="24" rx="2"/>
    <rect x="452" y="168" width="22" height="28" rx="2"/>
    <rect x="492" y="168" width="22" height="28" rx="2"/>
  </g>
  <path d="M41 392 C118 365 192 384 252 394 C326 407 418 392 504 368 C555 354 596 360 627 378" fill="none" stroke="#374151" stroke-width="10" stroke-linecap="round"/>
  <circle cx="176" cy="387" r="18" fill="#f26d5b" stroke="#2b2b2b" stroke-width="5"/>
  <circle cx="235" cy="387" r="18" fill="#f26d5b" stroke="#2b2b2b" stroke-width="5"/>
  <path d="M167 356 h78 l28 28 h-137z" fill="#ffe082" stroke="#2b2b2b" stroke-width="5" stroke-linejoin="round"/>
  <path d="M42 104 C82 70 116 105 150 82 C188 57 221 82 236 112" fill="none" stroke="#79b7d9" stroke-width="12" stroke-linecap="round"/>
  <path d="M363 83 C390 55 420 78 444 61 C478 38 512 62 526 91" fill="none" stroke="#79b7d9" stroke-width="12" stroke-linecap="round"/>
</svg>

